<svg width="373" height="172" viewBox="0 0 373 172" fill="none" xmlns="http://www.w3.org/2000/svg">
<g filter="url(#filter0_d)">
<path d="M50.992 78.1899C50.8594 80.487 50.5501 82.8062 50.0641 85.1475C49.5781 87.4446 48.8048 89.5208 47.7443 91.3762C46.728 93.2315 45.3804 94.7556 43.7013 95.9483C42.0222 97.0968 39.9455 97.6711 37.471 97.6711C35.9245 97.6711 34.5547 97.4281 33.3617 96.9422C32.2129 96.5005 31.1966 95.9041 30.3129 95.1531C29.4733 94.358 28.7664 93.4745 28.1919 92.5026C27.6175 91.4866 27.1315 90.4264 26.7338 89.322C25.1873 91.8842 23.3535 93.8721 21.2326 95.2857C19.1559 96.6551 17.0791 97.3398 15.0024 97.3398C13.3233 97.3398 11.7989 97.0306 10.4291 96.4121C9.1035 95.7937 7.95466 94.9323 6.98257 93.8279C6.05466 92.6793 5.32559 91.3099 4.79535 89.7196C4.26512 88.1293 4 86.3402 4 84.3523C4 81.0392 4.28721 78.1899 4.86163 75.8044C5.48024 73.3748 6.14303 71.3869 6.85001 69.8408C7.60117 68.2947 8.28606 67.1461 8.90467 66.3951C9.52327 65.6 9.83258 65.2024 9.83258 65.2024C10.0535 64.9374 10.3186 64.7386 10.6279 64.6061C10.9814 64.4735 11.3349 64.4073 11.6884 64.4073C12.3954 64.4073 12.9698 64.6723 13.4117 65.2024C13.8977 65.6883 14.1407 66.2626 14.1407 66.9253C14.1407 67.4112 13.964 67.9413 13.6105 68.5156C13.4338 68.7806 13.0803 69.2886 12.55 70.0396C12.064 70.7906 11.5558 71.8066 11.0256 73.0877C10.4954 74.3688 10.0093 75.937 9.56746 77.7923C9.16978 79.6477 8.97095 81.8343 8.97095 84.3523C8.97095 86.9587 9.50118 88.9465 10.5616 90.316C11.6221 91.6412 13.1024 92.3038 15.0024 92.3038C15.9303 92.3038 16.9466 92.0609 18.0512 91.575C19.1559 91.0449 20.1942 90.2497 21.1663 89.1895C22.1384 88.1293 22.978 86.782 23.6849 85.1475C24.3919 83.513 24.8338 81.5914 25.0105 79.3826L25.8722 67.9855C25.9163 67.3228 26.1815 66.7706 26.6675 66.3289C27.1977 65.8871 27.7943 65.6663 28.4571 65.6663C29.2082 65.6663 29.8047 65.9534 30.2466 66.5277C30.6885 67.0578 30.9094 67.6762 30.9094 68.383L30.1803 79.3164C30.0478 81.6576 30.114 83.6676 30.3792 85.3463C30.6885 87.0249 31.1745 88.4164 31.8373 89.5208C32.5001 90.581 33.3175 91.3762 34.2896 91.9063C35.2617 92.3922 36.3443 92.6352 37.5373 92.6352C39.128 92.6352 40.4757 92.1713 41.5804 91.2436C42.685 90.316 43.5687 89.057 44.2315 87.4667C44.8943 85.8764 45.3583 84.0431 45.6234 81.9669C45.9327 79.8465 46.0873 77.6156 46.0873 75.2743C46.0873 72.4913 45.9327 70.1721 45.6234 68.3168C45.3141 66.4614 45.1594 65.2245 45.1594 64.6061C45.1594 63.9434 45.4025 63.3692 45.8885 62.8832C46.3746 62.3531 46.9711 62.0881 47.678 62.0881C48.2966 62.0881 48.8269 62.2869 49.2687 62.6844C49.7106 63.0378 49.9978 63.5238 50.1304 64.1422C50.1746 64.3189 50.3071 64.8269 50.5281 65.6663C50.749 66.5056 51.0583 67.5216 51.456 68.7143C51.8536 69.8629 52.3618 71.0998 52.9804 72.425C53.6432 73.7061 54.4164 74.8989 55.3002 76.0032C56.2281 77.1076 57.2664 78.0353 58.4153 78.7863C59.6083 79.4931 60.956 79.8465 62.4583 79.8465C63.2979 79.8465 64.0048 79.6919 64.5793 79.3826C65.1979 79.0292 65.706 78.6317 66.1037 78.1899C66.5014 77.7482 66.7886 77.3285 66.9653 76.9309C67.1862 76.5333 67.3188 76.2904 67.363 76.202C67.5839 75.7161 67.8932 75.3406 68.2909 75.0756C68.7328 74.7663 69.1967 74.6117 69.6828 74.6117C70.4339 74.6117 71.0304 74.8989 71.4723 75.4731C71.9584 76.0032 72.2014 76.5775 72.2014 77.196C72.2014 77.7261 71.9584 78.4329 71.4723 79.3164C71.0304 80.1999 70.3897 81.0613 69.5502 81.9006C68.7107 82.6958 67.6723 83.4026 66.4351 84.021C65.2421 84.5953 63.9165 84.8824 62.4583 84.8824C61.1769 84.8824 59.9839 84.7057 58.8792 84.3523C57.7746 83.9547 56.7362 83.4467 55.7641 82.8283C54.8362 82.2098 53.9746 81.503 53.1792 80.7079C52.3839 79.9127 51.6548 79.0734 50.992 78.1899Z" fill="#F7C5E8"/>
<path d="M78.2991 44.5947C78.2991 46.2734 77.7026 47.7091 76.5095 48.9018C75.3607 50.0504 73.9467 50.6246 72.2677 50.6246C70.5886 50.6246 69.1525 50.0504 67.9595 48.9018C66.8107 47.7091 66.2362 46.2734 66.2362 44.5947C66.2362 43.7554 66.3909 42.9824 66.7002 42.2756C67.0095 41.5246 67.4293 40.884 67.9595 40.3539C68.5339 39.7797 69.1746 39.3379 69.8816 39.0287C70.6328 38.7195 71.4281 38.5648 72.2677 38.5648C73.1072 38.5648 73.8805 38.7195 74.5874 39.0287C75.3386 39.3379 75.9793 39.7797 76.5095 40.3539C77.0839 40.884 77.5258 41.5246 77.8351 42.2756C78.1444 42.9824 78.2991 43.7554 78.2991 44.5947ZM67.5618 83.4246C67.5618 77.0634 67.9595 70.7243 68.7549 64.4073C68.8432 63.7888 69.1083 63.2587 69.5502 62.817C70.0363 62.331 70.6549 62.0881 71.406 62.0881C72.0688 62.0881 72.6211 62.3531 73.063 62.8832C73.5049 63.3692 73.7258 63.9434 73.7258 64.6061C73.7258 64.8711 73.6595 65.6663 73.527 66.9915C73.4386 68.3168 73.306 69.9071 73.1293 71.7624C72.9967 73.5736 72.8642 75.5173 72.7316 77.5935C72.6432 79.6256 72.5991 81.503 72.5991 83.2259C72.5991 85.5671 72.82 87.4667 73.2618 88.9244C73.7479 90.338 74.3444 91.4424 75.0514 92.2376C75.8025 93.0327 76.5758 93.5628 77.3712 93.8279C78.2107 94.0929 79.0061 94.2255 79.7572 94.2255C80.9944 94.2255 82.2758 93.7837 83.6014 92.9002C84.927 92.0167 86.2747 90.7798 87.6444 89.1895C89.0584 87.5992 90.4724 85.6997 91.8863 83.4909C93.3003 81.238 94.6921 78.7421 96.0619 76.0032C96.2829 75.5615 96.5922 75.2302 96.9898 75.0093C97.3875 74.7442 97.8294 74.6117 98.3154 74.6117C99.0224 74.6117 99.5968 74.8768 100.039 75.4069C100.525 75.937 100.768 76.5112 100.768 77.1297C100.768 77.5715 100.679 77.9469 100.503 78.2562C99.9724 79.2722 99.3096 80.5091 98.5143 81.9669C97.7189 83.4247 96.8131 84.9266 95.7968 86.4727C94.7805 88.0189 93.6538 89.565 92.4166 91.1111C91.2235 92.6131 89.9421 93.9825 88.5724 95.2194C87.2026 96.4121 85.7665 97.384 84.2642 98.1349C82.7619 98.8859 81.2374 99.2614 79.6909 99.2614C77.7026 99.2614 75.9572 98.8418 74.4549 98.0024C72.9525 97.1631 71.6711 96.0366 70.6107 94.623C69.5944 93.2094 68.8211 91.5529 68.2909 89.6533C67.8049 87.7096 67.5618 85.6334 67.5618 83.4246ZM74.5874 44.5947C74.5874 43.9763 74.3444 43.4462 73.8584 43.0044C73.4165 42.5185 72.8863 42.2756 72.2677 42.2756C71.649 42.2756 71.1188 42.5185 70.677 43.0044C70.2351 43.4462 70.0142 43.9763 70.0142 44.5947C70.0142 45.2132 70.2351 45.7433 70.677 46.1851C71.1188 46.6268 71.649 46.8477 72.2677 46.8477C72.8863 46.8477 73.4165 46.6268 73.8584 46.1851C74.3444 45.7433 74.5874 45.2132 74.5874 44.5947Z" fill="#F7C5E8"/>
<path d="M110.71 90.6473C111.417 89.1895 112.234 87.5992 113.162 85.8764C114.09 84.1094 115.084 82.3424 116.145 80.5754C117.205 78.7642 118.31 76.9751 119.459 75.2081C120.652 73.4411 121.889 71.7624 123.17 70.1721C124.452 68.626 125.733 67.5216 127.014 66.859C128.34 66.1522 129.577 65.7988 130.726 65.7988C133.024 65.7988 134.725 66.6381 135.829 68.3168C136.934 69.9954 137.486 72.0717 137.486 74.5455C137.486 75.1197 137.442 75.8265 137.354 76.6659C137.31 77.461 137.243 78.3224 137.155 79.2501C137.111 80.1778 137.045 81.1275 136.956 82.0994C136.912 83.0271 136.89 83.9106 136.89 84.7499C136.89 85.8101 136.934 86.8261 137.023 87.798C137.155 88.7698 137.376 89.6312 137.685 90.3822C137.995 91.089 138.436 91.6633 139.011 92.105C139.585 92.5026 140.336 92.7014 141.264 92.7014C142.943 92.7014 144.578 92.0609 146.169 90.7798C147.76 89.4545 149.218 87.9084 150.543 86.1414C151.913 84.3302 153.084 82.497 154.056 80.6416C155.073 78.7863 155.824 77.2843 156.31 76.1358C156.531 75.6498 156.84 75.2743 157.238 75.0093C157.68 74.7442 158.144 74.6117 158.63 74.6117C159.381 74.6117 159.977 74.8989 160.419 75.4731C160.905 76.0032 161.148 76.5775 161.148 77.196C161.148 77.5052 161.082 77.8144 160.949 78.1236C160.773 78.477 160.419 79.2059 159.889 80.3103C159.359 81.4147 158.652 82.6958 157.768 84.1535C156.928 85.5671 155.934 87.0912 154.785 88.7257C153.637 90.316 152.355 91.7737 150.941 93.099C149.571 94.4242 148.069 95.5286 146.434 96.4121C144.843 97.2956 143.164 97.7374 141.397 97.7374C139.409 97.7374 137.796 97.3619 136.559 96.6109C135.321 95.8158 134.349 94.7997 133.642 93.5628C132.935 92.2818 132.449 90.8902 132.184 89.3883C131.963 87.8422 131.853 86.296 131.853 84.7499C131.853 84.0873 131.875 83.3363 131.919 82.497C132.007 81.6576 132.096 80.7741 132.184 79.8465C132.317 78.9188 132.405 77.9911 132.449 77.0634C132.538 76.1358 132.582 75.2523 132.582 74.4129C132.582 72.9993 132.361 72.0496 131.919 71.5636C131.477 71.0335 131.079 70.7685 130.726 70.7685C130.019 70.7685 129.202 71.1881 128.274 72.0275C127.39 72.8226 126.44 73.8828 125.424 75.2081C124.452 76.5333 123.435 78.0353 122.375 79.7139C121.359 81.3484 120.386 82.9829 119.459 84.6174C118.575 86.2519 117.735 87.8201 116.94 89.322C116.189 90.7798 115.592 91.9946 115.15 92.9665C114.267 94.8218 113.383 96.0587 112.499 96.6772C111.615 97.3398 110.71 97.6711 109.782 97.6711C108.5 97.6711 107.462 97.2956 106.667 96.5446C105.915 95.7495 105.54 94.6451 105.54 93.2315C105.54 92.9223 105.584 92.3259 105.672 91.4424C105.761 90.5148 105.871 89.4325 106.004 88.1956C106.136 86.9145 106.269 85.5451 106.401 84.0873C106.534 82.6295 106.667 81.1938 106.799 79.7802C106.932 78.3224 107.042 76.9751 107.131 75.7382C107.219 74.5013 107.263 73.4632 107.263 72.6238C107.263 71.5195 107.219 70.4593 107.131 69.4432C107.042 68.4272 106.865 67.8088 106.6 67.5879C106.203 67.7204 105.496 68.5597 104.479 70.1059C103.463 71.6078 102.16 74.2804 100.569 78.1236C100.348 78.6096 100.017 78.985 99.5747 79.2501C99.1329 79.5151 98.6689 79.6477 98.1829 79.6477C97.4317 79.6477 96.8352 79.4047 96.3933 78.9188C95.9515 78.3887 95.7305 77.7923 95.7305 77.1297C95.7305 76.8205 95.7968 76.4892 95.9294 76.1358C97.9177 71.409 99.7736 67.9413 101.497 65.7325C103.264 63.4796 105.01 62.3531 106.733 62.3531C107.749 62.3531 108.611 62.6182 109.318 63.1483C110.025 63.6342 110.577 64.2968 110.975 65.1362C111.417 65.9755 111.726 66.9032 111.903 67.9192C112.124 68.9352 112.234 69.9733 112.234 71.0335C112.234 71.8287 112.168 73.0656 112.035 74.7442C111.947 76.4229 111.814 78.2341 111.638 80.1778C111.461 82.0773 111.284 83.9768 111.107 85.8764C110.975 87.7759 110.842 89.3662 110.71 90.6473Z" fill="#F7C5E8"/>
<path d="M171.156 90.6473C171.863 89.1895 172.681 87.5992 173.609 85.8764C174.537 84.1094 175.531 82.3424 176.591 80.5754C177.652 78.7642 178.756 76.9751 179.905 75.2081C181.098 73.4411 182.335 71.7624 183.617 70.1721C184.898 68.626 186.18 67.5216 187.461 66.859C188.787 66.1522 190.024 65.7988 191.173 65.7988C193.47 65.7988 195.172 66.6381 196.276 68.3168C197.381 69.9954 197.933 72.0717 197.933 74.5455C197.933 75.1197 197.889 75.8265 197.801 76.6659C197.756 77.461 197.69 78.3224 197.602 79.2501C197.558 80.1778 197.491 81.1275 197.403 82.0994C197.359 83.0271 197.337 83.9106 197.337 84.7499C197.337 85.8101 197.381 86.8261 197.469 87.798C197.602 88.7698 197.823 89.6312 198.132 90.3822C198.441 91.089 198.883 91.6633 199.458 92.105C200.032 92.5026 200.783 92.7014 201.711 92.7014C203.39 92.7014 205.025 92.0609 206.616 90.7798C208.206 89.4545 209.665 87.9084 210.99 86.1414C212.36 84.3302 213.531 82.497 214.503 80.6416C215.519 78.7863 216.27 77.2843 216.756 76.1358C216.977 75.6498 217.287 75.2743 217.684 75.0093C218.126 74.7442 218.59 74.6117 219.076 74.6117C219.827 74.6117 220.424 74.8989 220.866 75.4731C221.352 76.0032 221.595 76.5775 221.595 77.196C221.595 77.5052 221.529 77.8144 221.396 78.1236C221.219 78.477 220.866 79.2059 220.336 80.3103C219.805 81.4147 219.098 82.6958 218.215 84.1535C217.375 85.5671 216.381 87.0912 215.232 88.7257C214.083 90.316 212.802 91.7737 211.388 93.099C210.018 94.4242 208.516 95.5286 206.881 96.4121C205.29 97.2956 203.611 97.7374 201.844 97.7374C199.855 97.7374 198.242 97.3619 197.005 96.6109C195.768 95.8158 194.796 94.7997 194.089 93.5628C193.382 92.2818 192.896 90.8902 192.631 89.3883C192.41 87.8422 192.299 86.296 192.299 84.7499C192.299 84.0873 192.322 83.3363 192.366 82.497C192.454 81.6576 192.542 80.7741 192.631 79.8465C192.763 78.9188 192.852 77.9911 192.896 77.0634C192.984 76.1358 193.029 75.2523 193.029 74.4129C193.029 72.9993 192.808 72.0496 192.366 71.5636C191.924 71.0335 191.526 70.7685 191.173 70.7685C190.466 70.7685 189.648 71.1881 188.72 72.0275C187.837 72.8226 186.887 73.8828 185.87 75.2081C184.898 76.5333 183.882 78.0353 182.821 79.7139C181.805 81.3484 180.833 82.9829 179.905 84.6174C179.021 86.2519 178.182 87.8201 177.387 89.322C176.635 90.7798 176.039 91.9946 175.597 92.9665C174.713 94.8218 173.83 96.0587 172.946 96.6772C172.062 97.3398 171.156 97.6711 170.228 97.6711C168.947 97.6711 167.909 97.2956 167.113 96.5446C166.362 95.7495 165.987 94.6451 165.987 93.2315C165.987 92.9223 166.031 92.3259 166.119 91.4424C166.207 90.5148 166.318 89.4325 166.451 88.1956C166.583 86.9145 166.716 85.5451 166.848 84.0873C166.981 82.6295 167.113 81.1938 167.246 79.7802C167.378 78.3224 167.489 76.9751 167.577 75.7382C167.666 74.5013 167.71 73.4632 167.71 72.6238C167.71 71.5195 167.666 70.4593 167.577 69.4432C167.489 68.4272 167.312 67.8088 167.047 67.5879C166.649 67.7204 165.942 68.5597 164.926 70.1059C163.91 71.6078 162.606 74.2804 161.016 78.1236C160.795 78.6096 160.463 78.985 160.021 79.2501C159.58 79.5151 159.116 79.6477 158.63 79.6477C157.878 79.6477 157.282 79.4047 156.84 78.9188C156.398 78.3887 156.177 77.7923 156.177 77.1297C156.177 76.8205 156.244 76.4892 156.376 76.1358C158.364 71.409 160.22 67.9413 161.944 65.7325C163.711 63.4796 165.456 62.3531 167.18 62.3531C168.196 62.3531 169.058 62.6182 169.764 63.1483C170.471 63.6342 171.024 64.2968 171.421 65.1362C171.863 65.9755 172.173 66.9032 172.349 67.9192C172.57 68.9352 172.681 69.9733 172.681 71.0335C172.681 71.8287 172.614 73.0656 172.482 74.7442C172.394 76.4229 172.261 78.2341 172.084 80.1778C171.908 82.0773 171.731 83.9768 171.554 85.8764C171.421 87.7759 171.289 89.3662 171.156 90.6473Z" fill="#F7C5E8"/>
<path d="M241.545 97.5386C243.091 95.9925 244.66 94.4242 246.251 92.8339C247.841 91.1995 249.388 89.4987 250.89 87.7317C252.393 85.9647 253.785 84.1314 255.066 82.2319C256.391 80.2882 257.562 78.2341 258.579 76.0695C258.8 75.5836 259.109 75.2302 259.507 75.0093C259.904 74.7442 260.346 74.6117 260.832 74.6117C261.583 74.6117 262.18 74.8768 262.622 75.4069C263.108 75.937 263.351 76.5333 263.351 77.196C263.351 77.5494 263.285 77.8807 263.152 78.1899C261.782 81.0613 260.214 83.6897 258.446 86.0751C256.679 88.4606 254.823 90.7356 252.879 92.9002C250.935 95.0206 248.968 97.0748 246.98 99.0626C244.991 101.095 243.091 103.127 241.28 105.159C241.103 108.207 241.103 111.255 241.28 114.303C241.457 117.395 241.545 120.664 241.545 124.11C241.545 126.937 241.457 129.764 241.28 132.592C241.103 135.419 240.816 138.113 240.418 140.676C240.021 143.282 239.468 145.712 238.761 147.964C238.098 150.217 237.237 152.161 236.176 153.796C235.116 155.474 233.879 156.777 232.465 157.705C231.051 158.677 229.394 159.163 227.494 159.163C224.357 159.163 221.948 158.081 220.269 155.916C218.59 153.751 217.751 150.725 217.751 146.838C217.751 144.718 217.972 142.443 218.413 140.013C218.9 137.583 219.562 135.065 220.402 132.459C221.241 129.897 222.236 127.291 223.384 124.64C224.577 121.989 225.859 119.405 227.229 116.887C228.598 114.369 230.057 111.962 231.603 109.665C233.15 107.412 234.718 105.358 236.309 103.502C236.397 101.382 236.486 99.1731 236.574 96.876C236.707 94.623 236.839 92.5247 236.972 90.581C235.823 92.6131 234.387 94.2475 232.664 95.4844C230.984 96.7213 229.129 97.3398 227.096 97.3398C223.738 97.3398 221.109 96.2133 219.209 93.9604C217.309 91.7075 216.359 88.6152 216.359 84.6836C216.359 81.8123 216.624 79.2059 217.154 76.8646C217.729 74.4792 218.325 72.4471 218.944 70.7685C219.606 69.0457 220.203 67.7425 220.733 66.859C221.263 65.9313 221.529 65.4896 221.529 65.5337C222.015 64.7828 222.7 64.4073 223.583 64.4073C224.334 64.4073 224.931 64.6723 225.373 65.2024C225.859 65.6883 226.102 66.2626 226.102 66.9253C226.102 67.4112 225.969 67.8529 225.704 68.2505C225.748 68.2063 225.527 68.5818 225.041 69.377C224.6 70.1279 224.091 71.2323 223.517 72.6901C222.987 74.1479 222.479 75.8928 221.993 77.9249C221.551 79.9569 221.33 82.1877 221.33 84.6174C221.33 87.047 221.772 88.9465 222.655 90.316C223.539 91.6854 224.975 92.3701 226.964 92.3701C229.482 92.3701 231.758 90.5147 233.79 86.804C235.823 83.0492 237.546 77.6156 238.96 70.5034C239.048 69.9292 239.314 69.4653 239.755 69.1119C240.197 68.7143 240.727 68.5156 241.346 68.5156C242.053 68.5156 242.65 68.7585 243.136 69.2444C243.622 69.7304 243.865 70.3267 243.865 71.0335C243.865 71.1661 243.776 71.9612 243.6 73.419C243.423 74.8326 243.202 76.7321 242.937 79.1176C242.716 81.503 242.473 84.2861 242.208 87.4667C241.943 90.6031 241.722 93.9604 241.545 97.5386ZM236.243 111.586C234.254 114.458 232.42 117.484 230.741 120.664C229.107 123.845 227.693 127.003 226.5 130.14C225.307 133.276 224.379 136.28 223.716 139.152C223.053 142.023 222.722 144.585 222.722 146.838C222.722 149.135 223.097 150.924 223.848 152.205C224.6 153.531 225.793 154.193 227.427 154.193C228.886 154.193 230.167 153.464 231.272 152.006C232.42 150.593 233.37 148.561 234.122 145.91C234.917 143.26 235.514 140.035 235.911 136.236C236.309 132.481 236.508 128.262 236.508 123.58C236.508 121.68 236.464 119.759 236.375 117.815C236.331 115.871 236.287 113.795 236.243 111.586Z" fill="#F7C5E8"/>
<path d="M271.901 94.6893C271.901 95.7053 271.547 96.5446 270.84 97.2073C270.178 97.9141 269.338 98.2675 268.322 98.2675C267.305 98.2675 266.444 97.9141 265.737 97.2073C265.074 96.5446 264.743 95.7053 264.743 94.6893C264.743 93.7174 265.074 92.9002 265.737 92.2376C266.444 91.5308 267.305 91.1774 268.322 91.1774C269.338 91.1774 270.178 91.5308 270.84 92.2376C271.547 92.9002 271.901 93.7174 271.901 94.6893Z" fill="#F7C5E8"/>
<path d="M317.037 78.1236C317.037 82.1877 316.308 85.6555 314.85 88.5269C313.392 91.3983 311.602 93.5849 309.481 95.0869H309.746C312.353 95.0869 314.717 94.5126 316.838 93.364C319.003 92.1713 320.948 90.6694 322.671 88.8582C324.394 87.0028 325.941 84.9487 327.31 82.6958C328.68 80.4428 329.895 78.2562 330.956 76.1358C331.177 75.6498 331.486 75.2743 331.884 75.0093C332.325 74.7442 332.789 74.6117 333.275 74.6117C334.027 74.6117 334.623 74.8768 335.065 75.4069C335.507 75.937 335.728 76.5112 335.728 77.1297C335.728 77.4831 335.662 77.8144 335.529 78.1236C334.38 80.6858 333.01 83.27 331.42 85.8764C329.829 88.4385 327.973 90.7577 325.852 92.8339C323.731 94.9102 321.345 96.5888 318.694 97.8699C316.043 99.1952 313.104 99.8578 309.879 99.8578C307.537 99.8578 305.261 99.4823 303.052 98.7313C300.843 98.0245 298.899 96.898 297.22 95.3519C296.601 94.866 296.071 94.358 295.629 93.8279C295.187 93.2536 294.833 92.7235 294.568 92.2376C294.48 92.1492 294.436 92.0609 294.436 91.9725C294.171 91.575 294.038 91.1553 294.038 90.7135C294.038 90.1393 294.237 89.6092 294.635 89.1232C294.679 89.0349 294.723 88.9907 294.767 88.9907C294.811 88.9465 294.856 88.9024 294.9 88.8582C295.342 88.4606 295.828 88.2397 296.358 88.1956H296.557C296.778 88.1956 296.932 88.2176 297.021 88.2618C297.065 88.2618 297.087 88.2839 297.087 88.3281C297.131 88.3281 297.175 88.3281 297.22 88.3281C297.352 88.3281 297.507 88.3723 297.683 88.4606C297.728 88.5048 297.772 88.5269 297.816 88.5269C298.214 88.7919 298.545 89.1232 298.81 89.5208C299.12 90.0509 299.473 90.5368 299.871 90.9786C300.224 91.332 300.644 91.6633 301.13 91.9725C301.616 92.2376 302.168 92.3701 302.787 92.3701C303.892 92.3701 304.996 92.0388 306.101 91.3762C307.206 90.7135 308.2 89.7638 309.084 88.5269C309.967 87.29 310.674 85.788 311.204 84.021C311.779 82.254 312.066 80.2882 312.066 78.1236C312.066 76.5333 311.889 75.186 311.536 74.0816C311.227 72.9331 310.807 72.0054 310.277 71.2986C309.791 70.5918 309.26 70.0838 308.686 69.7745C308.111 69.4211 307.559 69.2444 307.029 69.2444C305.836 69.2444 304.621 69.8629 303.384 71.0998C302.19 72.3367 300.997 73.9049 299.804 75.8044C298.611 77.704 297.418 79.8023 296.225 82.0994C295.077 84.3965 293.906 86.6273 292.713 88.7919C292.624 95.9483 292.492 102.773 292.315 109.267C292.182 115.761 291.917 121.791 291.52 127.357C291.166 132.923 290.658 137.959 289.995 142.465C289.332 146.971 288.426 150.814 287.278 153.994C286.129 157.219 284.715 159.693 283.036 161.416C281.357 163.139 279.302 164 276.872 164C276.121 164 275.259 163.845 274.287 163.536C273.315 163.227 272.409 162.586 271.569 161.615C270.73 160.687 270.023 159.34 269.449 157.573C268.874 155.806 268.587 153.442 268.587 150.482C268.587 146.728 269.051 142.376 269.979 137.429C270.907 132.481 272.232 127.224 273.956 121.658C275.635 116.136 277.645 110.46 279.987 104.629C282.329 98.7976 284.914 93.1211 287.742 87.5992C287.742 86.0531 287.742 84.529 287.742 83.0271C287.786 81.5251 287.808 80.0673 287.808 78.6537C287.233 79.3164 286.549 79.6477 285.753 79.6477C285.002 79.6477 284.406 79.3826 283.964 78.8525C283.522 78.3224 283.301 77.7482 283.301 77.1297C283.301 76.8205 283.367 76.4892 283.5 76.1358C284.56 73.7061 285.378 71.409 285.952 69.2444C286.526 67.0357 286.946 65.1141 287.211 63.4796C287.521 61.8009 287.697 60.4757 287.742 59.5038C287.786 58.532 287.808 58.024 287.808 57.9798C287.808 57.3172 288.051 56.7429 288.537 56.257C289.023 55.771 289.619 55.5281 290.326 55.5281C290.989 55.5281 291.564 55.771 292.05 56.257C292.536 56.6987 292.779 57.273 292.779 57.9798V78.3224C293.795 76.5996 294.811 74.8989 295.828 73.2202C296.844 71.5415 297.904 70.0396 299.009 68.7143C300.158 67.3891 301.373 66.3289 302.654 65.5337C303.98 64.6944 305.438 64.2747 307.029 64.2747C308.531 64.2747 309.901 64.6282 311.138 65.335C312.375 66.0418 313.436 67.0136 314.32 68.2505C315.203 69.4874 315.866 70.9673 316.308 72.6901C316.794 74.3688 317.037 76.1799 317.037 78.1236ZM287.609 99.3939C285.444 104.253 283.478 109.135 281.71 114.038C279.987 118.941 278.529 123.668 277.336 128.218C276.099 132.768 275.149 137.031 274.486 141.007C273.823 144.983 273.492 148.472 273.492 151.476C273.492 152.227 273.536 153.045 273.624 153.928C273.712 154.812 273.889 155.629 274.154 156.38C274.419 157.131 274.795 157.749 275.281 158.235C275.767 158.765 276.408 159.03 277.203 159.03C278.661 159.03 279.921 158.103 280.981 156.247C282.042 154.436 282.925 151.962 283.632 148.826C284.383 145.734 285.002 142.155 285.488 138.091C285.974 134.071 286.35 129.853 286.615 125.435C286.924 121.018 287.145 116.556 287.278 112.05C287.41 107.588 287.521 103.37 287.609 99.3939Z" fill="#F7C5E8"/>
<path d="M368.735 78.2562C368.249 79.2722 367.63 80.487 366.879 81.9006C366.172 83.27 365.355 84.7057 364.427 86.2077C363.499 87.7096 362.46 89.2116 361.312 90.7135C360.163 92.1713 358.903 93.4966 357.534 94.6893C356.208 95.8378 354.772 96.7655 353.226 97.4723C351.723 98.2233 350.11 98.5988 348.387 98.5988C345.736 98.5988 343.46 97.7815 341.56 96.1471C339.66 94.5126 338.048 92.3701 336.722 89.7196C335.396 87.0691 334.314 84.0652 333.474 80.7079C332.679 77.3064 332.06 73.8607 331.618 70.3709C331.177 66.8369 330.867 63.4133 330.691 60.1002C330.558 56.7871 330.492 53.8494 330.492 51.2873C330.492 47.5766 330.602 43.7333 330.823 39.7576C331.088 35.7818 331.486 31.8944 332.016 28.0954C332.546 24.2963 333.209 20.696 334.005 17.2945C334.844 13.8931 335.816 10.9112 336.921 8.34909C338.07 5.78694 339.373 3.75488 340.831 2.25293C342.289 0.750976 343.946 0 345.802 0C347.26 0 348.564 0.353401 349.713 1.0602C350.906 1.72283 351.9 2.82721 352.695 4.37333C353.491 5.91946 354.109 7.92943 354.551 10.4032C354.993 12.877 355.214 15.903 355.214 19.4812C355.214 23.8987 354.75 28.4708 353.822 33.1976C352.894 37.8801 351.635 42.6069 350.044 47.3778C348.453 52.1487 346.575 56.9196 344.41 61.6905C342.245 66.4172 339.925 71.0335 337.451 75.5394C338.556 81.1496 340.036 85.5671 341.892 88.7919C343.748 91.9725 345.979 93.5628 348.586 93.5628C350.353 93.5628 352.055 92.8781 353.689 91.5087C355.324 90.0951 356.827 88.4385 358.196 86.539C359.566 84.6395 360.759 82.7178 361.776 80.7741C362.836 78.7863 363.653 77.196 364.228 76.0032C364.449 75.5615 364.758 75.2302 365.156 75.0093C365.553 74.7442 365.995 74.6117 366.481 74.6117C367.233 74.6117 367.829 74.8768 368.271 75.4069C368.757 75.937 369 76.5333 369 77.196C369 77.461 368.912 77.8144 368.735 78.2562ZM335.529 51.6186C335.529 54.4458 335.595 57.1626 335.728 59.7689C335.86 62.3752 336.037 64.8711 336.258 67.2566C338.114 63.6784 339.881 59.8793 341.56 55.8594C343.239 51.7953 344.72 47.7091 346.001 43.6008C347.282 39.4483 348.299 35.3401 349.05 31.276C349.845 27.1677 350.243 23.2582 350.243 19.5475C350.243 14.3348 349.823 10.602 348.984 8.34909C348.144 6.09616 347.017 4.9697 345.603 4.9697C344.675 4.9697 343.77 5.61024 342.886 6.89131C342.046 8.17239 341.251 9.91731 340.5 12.1261C339.749 14.3348 339.064 16.9411 338.445 19.9451C337.827 22.949 337.296 26.1737 336.855 29.6194C336.457 33.0651 336.125 36.6653 335.86 40.4202C335.639 44.1751 335.529 47.9079 335.529 51.6186Z" fill="#F7C5E8"/>
</g>
<defs>
<filter id="filter0_d" x="0" y="0" width="373" height="172" filterUnits="userSpaceOnUse" color-interpolation-filters="sRGB">
<feFlood flood-opacity="0" result="BackgroundImageFix"/>
<feColorMatrix in="SourceAlpha" type="matrix" values="0 0 0 0 0 0 0 0 0 0 0 0 0 0 0 0 0 0 127 0"/>
<feOffset dy="4"/>
<feGaussianBlur stdDeviation="2"/>
<feColorMatrix type="matrix" values="0 0 0 0 0 0 0 0 0 0 0 0 0 0 0 0 0 0 0.25 0"/>
<feBlend mode="normal" in2="BackgroundImageFix" result="effect1_dropShadow"/>
<feBlend mode="normal" in="SourceGraphic" in2="effect1_dropShadow" result="shape"/>
</filter>
</defs>
</svg>
